# xmcd CD database file
#
# Track frame offsets:
#	150
#	30975
#	50378
#	72738
#	107048
#	130840
#	152683
#	179735
#	189690
#
# Disc length: 2861 seconds
#
# Revision: 0
# Processed by: cddbd v1.5.1PL0 Copyright (c) Steve Scherf et al.
# Submitted via: CDex 1.51
#
DISCID=7e0b2b09
DTITLE=Takis Barberis - Are You Happy ?
DYEAR=1992
DGENRE=Jazz
TTITLE0=if ... in a lovely weekend
TTITLE1=hidjazzkiar
TTITLE2=are you happy ?
TTITLE3=if you open the door
TTITLE4=drive me home
TTITLE5=after poros
TTITLE6=antidote blues
TTITLE7=I remember now
TTITLE8=strange coincidence
EXTD=YEAR: 1992
EXTT0=
EXTT1=
EXTT2=
EXTT3=
EXTT4=
EXTT5=
EXTT6=
EXTT7=
EXTT8=
PLAYORDER=
